<svg xmlns="http://www.w3.org/2000/svg" viewBox="0 0 1200 900" preserveAspectRatio="xMidYMid slice"><rect width="1200" height="900" fill="#0e0d12"/><line x1="80" y1="0" x2="80" y2="900" stroke="#201e26" stroke-width="1"/><line x1="160" y1="0" x2="160" y2="900" stroke="#201e26" stroke-width="1"/><line x1="240" y1="0" x2="240" y2="900" stroke="#201e26" stroke-width="1"/><line x1="320" y1="0" x2="320" y2="900" stroke="#201e26" stroke-width="1"/><line x1="400" y1="0" x2="400" y2="900" stroke="#201e26" stroke-width="1"/><line x1="480" y1="0" x2="480" y2="900" stroke="#201e26" stroke-width="1"/><line x1="560" y1="0" x2="560" y2="900" stroke="#201e26" stroke-width="1"/><line x1="640" y1="0" x2="640" y2="900" stroke="#201e26" stroke-width="1"/><line x1="720" y1="0" x2="720" y2="900" stroke="#201e26" stroke-width="1"/><line x1="800" y1="0" x2="800" y2="900" stroke="#201e26" stroke-width="1"/><line x1="880" y1="0" x2="880" y2="900" stroke="#201e26" stroke-width="1"/><line x1="960" y1="0" x2="960" y2="900" stroke="#201e26" stroke-width="1"/><line x1="1040" y1="0" x2="1040" y2="900" stroke="#201e26" stroke-width="1"/><line x1="1120" y1="0" x2="1120" y2="900" stroke="#201e26" stroke-width="1"/><line x1="0" y1="80" x2="1200" y2="80" stroke="#201e26" stroke-width="1"/><line x1="0" y1="160" x2="1200" y2="160" stroke="#201e26" stroke-width="1"/><line x1="0" y1="240" x2="1200" y2="240" stroke="#201e26" stroke-width="1"/><line x1="0" y1="320" x2="1200" y2="320" stroke="#201e26" stroke-width="1"/><line x1="0" y1="400" x2="1200" y2="400" stroke="#201e26" stroke-width="1"/><line x1="0" y1="480" x2="1200" y2="480" stroke="#201e26" stroke-width="1"/><line x1="0" y1="560" x2="1200" y2="560" stroke="#201e26" stroke-width="1"/><line x1="0" y1="640" x2="1200" y2="640" stroke="#201e26" stroke-width="1"/><line x1="0" y1="720" x2="1200" y2="720" stroke="#201e26" stroke-width="1"/><line x1="0" y1="800" x2="1200" y2="800" stroke="#201e26" stroke-width="1"/><line x1="0" y1="880" x2="1200" y2="880" stroke="#201e26" stroke-width="1"/><rect x="150" y="270" width="10" height="60" fill="#9e9ba6"/><rect x="176" y="240" width="10" height="120" fill="#9e9ba6"/><rect x="202" y="210" width="10" height="180" fill="#9e9ba6"/><rect x="228" y="248" width="10" height="104" fill="#9e9ba6"/><rect x="254" y="180" width="10" height="240" fill="#9e9ba6"/><rect x="280" y="220" width="10" height="160" fill="#9e9ba6"/><rect x="306" y="260" width="10" height="80" fill="#9e9ba6"/><rect x="332" y="200" width="10" height="200" fill="#9e9ba6"/><rect x="358" y="234" width="10" height="132" fill="#9e9ba6"/><rect x="384" y="160" width="10" height="280" fill="#9e9ba6"/><rect x="410" y="246" width="10" height="108" fill="#9e9ba6"/><rect x="436" y="212" width="10" height="176" fill="#9e9ba6"/><rect x="462" y="256" width="10" height="88" fill="#9e9ba6"/><rect x="488" y="190" width="10" height="220" fill="#9e9ba6"/><rect x="514" y="230" width="10" height="140" fill="#9e9ba6"/><rect x="540" y="264" width="10" height="72" fill="#9e9ba6"/><rect x="566" y="204" width="10" height="192" fill="#9e9ba6"/><rect x="592" y="242" width="10" height="116" fill="#9e9ba6"/><text x="150" y="420" fill="#c3bec6" font-family="ui-monospace,Menlo,monospace" font-size="17" letter-spacing="2.5">"started in closed guard,</text><text x="150" y="448" fill="#c3bec6" font-family="ui-monospace,Menlo,monospace" font-size="17" letter-spacing="2.5">hit a scissor sweep..."</text><text x="150" y="220" fill="#22D3EE" font-family="ui-monospace,Menlo,monospace" font-size="18" letter-spacing="2.5">30-SEC VOICE LOG</text><line x1="600" y1="300" x2="720" y2="300" stroke="#9e9ba6" stroke-width="2"/><polygon points="720,300 711.2241743810963,304.79425538604204 711.2241743810963,295.20574461395796" fill="#9e9ba6"/><text x="600" y="270" fill="#9e9ba6" font-family="ui-monospace,Menlo,monospace" font-size="15" letter-spacing="2.5">on-device</text><rect x="740" y="190" width="330" height="470" fill="none" stroke="#EA4E32" stroke-width="2.2"/><text x="770" y="270" fill="#9e9ba6" font-family="ui-monospace,Menlo,monospace" font-size="14" letter-spacing="2.5">POSITION</text><line x1="770" y1="288" x2="1040" y2="288" stroke="#201e26" stroke-width="1.2"/><text x="770" y="370" fill="#9e9ba6" font-family="ui-monospace,Menlo,monospace" font-size="14" letter-spacing="2.5">SWEEP</text><line x1="770" y1="388" x2="1040" y2="388" stroke="#201e26" stroke-width="1.2"/><text x="770" y="470" fill="#9e9ba6" font-family="ui-monospace,Menlo,monospace" font-size="14" letter-spacing="2.5">SUBMISSION</text><line x1="770" y1="488" x2="1040" y2="488" stroke="#201e26" stroke-width="1.2"/><text x="770" y="570" fill="#9e9ba6" font-family="ui-monospace,Menlo,monospace" font-size="14" letter-spacing="2.5">RESULT</text><line x1="770" y1="588" x2="1040" y2="588" stroke="#201e26" stroke-width="1.2"/><text x="770" y="235" fill="#EA4E32" font-family="ui-monospace,Menlo,monospace" font-size="17" letter-spacing="2.5">STRUCTURED SESSION</text><path d="M34,88 V34 H88" stroke="#57545e" stroke-width="2" fill="none"/><path d="M1112,34 H1166 V88" stroke="#57545e" stroke-width="2" fill="none"/><path d="M34,812 V866 H88" stroke="#57545e" stroke-width="2" fill="none"/><path d="M1112,866 H1166 V812" stroke="#57545e" stroke-width="2" fill="none"/><text x="52" y="860" fill="#9e9ba6" font-family="ui-monospace,Menlo,monospace" font-size="20" letter-spacing="2.5">FRAME / VOICE TO SESSION</text><text x="1148" y="66" text-anchor="end" fill="#57545e" font-family="ui-monospace,Menlo,monospace" font-size="18" letter-spacing="2.5">FIG.02</text></svg>