<svg xmlns="http://www.w3.org/2000/svg" viewBox="0 0 1600 900" preserveAspectRatio="xMidYMid slice"><rect width="1600" height="900" fill="#0e0d12"/><line x1="80" y1="0" x2="80" y2="900" stroke="#201e26" stroke-width="1"/><line x1="160" y1="0" x2="160" y2="900" stroke="#201e26" stroke-width="1"/><line x1="240" y1="0" x2="240" y2="900" stroke="#201e26" stroke-width="1"/><line x1="320" y1="0" x2="320" y2="900" stroke="#201e26" stroke-width="1"/><line x1="400" y1="0" x2="400" y2="900" stroke="#201e26" stroke-width="1"/><line x1="480" y1="0" x2="480" y2="900" stroke="#201e26" stroke-width="1"/><line x1="560" y1="0" x2="560" y2="900" stroke="#201e26" stroke-width="1"/><line x1="640" y1="0" x2="640" y2="900" stroke="#201e26" stroke-width="1"/><line x1="720" y1="0" x2="720" y2="900" stroke="#201e26" stroke-width="1"/><line x1="800" y1="0" x2="800" y2="900" stroke="#201e26" stroke-width="1"/><line x1="880" y1="0" x2="880" y2="900" stroke="#201e26" stroke-width="1"/><line x1="960" y1="0" x2="960" y2="900" stroke="#201e26" stroke-width="1"/><line x1="1040" y1="0" x2="1040" y2="900" stroke="#201e26" stroke-width="1"/><line x1="1120" y1="0" x2="1120" y2="900" stroke="#201e26" stroke-width="1"/><line x1="1200" y1="0" x2="1200" y2="900" stroke="#201e26" stroke-width="1"/><line x1="1280" y1="0" x2="1280" y2="900" stroke="#201e26" stroke-width="1"/><line x1="1360" y1="0" x2="1360" y2="900" stroke="#201e26" stroke-width="1"/><line x1="1440" y1="0" x2="1440" y2="900" stroke="#201e26" stroke-width="1"/><line x1="1520" y1="0" x2="1520" y2="900" stroke="#201e26" stroke-width="1"/><line x1="0" y1="80" x2="1600" y2="80" stroke="#201e26" stroke-width="1"/><line x1="0" y1="160" x2="1600" y2="160" stroke="#201e26" stroke-width="1"/><line x1="0" y1="240" x2="1600" y2="240" stroke="#201e26" stroke-width="1"/><line x1="0" y1="320" x2="1600" y2="320" stroke="#201e26" stroke-width="1"/><line x1="0" y1="400" x2="1600" y2="400" stroke="#201e26" stroke-width="1"/><line x1="0" y1="480" x2="1600" y2="480" stroke="#201e26" stroke-width="1"/><line x1="0" y1="560" x2="1600" y2="560" stroke="#201e26" stroke-width="1"/><line x1="0" y1="640" x2="1600" y2="640" stroke="#201e26" stroke-width="1"/><line x1="0" y1="720" x2="1600" y2="720" stroke="#201e26" stroke-width="1"/><line x1="0" y1="800" x2="1600" y2="800" stroke="#201e26" stroke-width="1"/><line x1="0" y1="880" x2="1600" y2="880" stroke="#201e26" stroke-width="1"/><polyline points="180,180 190,198 201,214 212,231 222,247 232,262 243,276 254,291 264,304 274,317 285,330 296,342 306,354 316,366 327,377 338,387 348,398 358,408 369,417 380,426 390,435 400,444 411,452 422,460 432,468 442,475 453,482 464,489 474,496 484,503 495,509 506,515 516,521 526,526 537,532 548,537 558,542 568,547 579,551 590,556 600,560 610,564 621,568 632,572 642,576 652,580 663,583 674,587 684,590 694,593 705,596 716,599 726,602 736,605 747,607 758,610 768,612 778,615 789,617 800,619 810,621 820,623 831,625 842,627 852,629 862,631 873,633 884,634 894,636 904,637 915,639 926,640 936,642 946,643 957,644 968,646 978,647 988,648 999,649 1010,650 1020,651 1030,652 1041,653 1052,654 1062,655 1072,656 1083,657 1094,658 1104,658 1114,659 1125,660 1136,661 1146,661 1156,662 1167,663 1178,663 1188,664 1198,664 1209,665 1220,665 1230,666 1240,666 1251,667 1262,667 1272,668 1282,668 1293,669 1304,669 1314,669 1324,670 1335,670 1346,671 1356,671 1366,671 1377,671 1388,672 1398,672 1408,672 1419,673 1430,673 1440,673" fill="none" stroke="#57545e" stroke-width="1.6" stroke-dasharray="5 6"/><text x="1430" y="674" text-anchor="end" fill="#57545e" font-family="ui-monospace,Menlo,monospace" font-size="16" letter-spacing="2.5">forgotten</text><line x1="533" y1="220" x2="533" y2="710" stroke="#22D3EE" stroke-width="1.2" stroke-dasharray="4 5"/><circle cx="533" cy="220" r="7" fill="#22D3EE"/><text x="532.8" y="738" text-anchor="middle" fill="#22D3EE" font-family="ui-monospace,Menlo,monospace" font-size="18" letter-spacing="2.5">+3d</text><line x1="873" y1="220" x2="873" y2="710" stroke="#22D3EE" stroke-width="1.2" stroke-dasharray="4 5"/><circle cx="873" cy="220" r="7" fill="#22D3EE"/><text x="873.0" y="738" text-anchor="middle" fill="#22D3EE" font-family="ui-monospace,Menlo,monospace" font-size="18" letter-spacing="2.5">+1w</text><line x1="1213" y1="220" x2="1213" y2="710" stroke="#22D3EE" stroke-width="1.2" stroke-dasharray="4 5"/><circle cx="1213" cy="220" r="7" fill="#22D3EE"/><text x="1213.2" y="738" text-anchor="middle" fill="#22D3EE" font-family="ui-monospace,Menlo,monospace" font-size="18" letter-spacing="2.5">+1m</text><polyline points="180,180 180,180 198,291 215,378 233,445 251,498 268,538 286,570 303,594 321,613 339,628 356,640 374,649 392,656 409,661 427,665 445,669 462,671 480,673 498,675 515,676 533,677 533,220 533,220 550,319 567,397 584,458 601,506 618,544 635,573 652,596 669,614 686,628 703,640 720,648 737,655 754,660 771,665 788,668 805,671 822,673 839,674 856,675 873,676 873,220 873,220 890,319 907,397 924,458 941,506 958,544 975,573 992,596 1009,614 1026,628 1043,640 1060,648 1077,655 1094,660 1111,665 1128,668 1145,671 1162,673 1179,674 1196,675 1213,676 1213,220" fill="none" stroke="#EA4E32" stroke-width="2.6"/><text x="180" y="154" fill="#c3bec6" font-family="ui-monospace,Menlo,monospace" font-size="20" letter-spacing="2.5">RETENTION — RECALL TIMED TO THE CURVE</text><path d="M34,88 V34 H88" stroke="#57545e" stroke-width="2" fill="none"/><path d="M1512,34 H1566 V88" stroke="#57545e" stroke-width="2" fill="none"/><path d="M34,812 V866 H88" stroke="#57545e" stroke-width="2" fill="none"/><path d="M1512,866 H1566 V812" stroke="#57545e" stroke-width="2" fill="none"/><text x="52" y="860" fill="#9e9ba6" font-family="ui-monospace,Menlo,monospace" font-size="20" letter-spacing="2.5">FRAME / SPACED RECALL</text><text x="1548" y="66" text-anchor="end" fill="#57545e" font-family="ui-monospace,Menlo,monospace" font-size="18" letter-spacing="2.5">FIG.01</text></svg>