<svg xmlns="http://www.w3.org/2000/svg" viewBox="0 0 915.2 915.2" role="img" aria-label="Flat-line schematic mark for SN-80"><rect width="915" height="915" fill="#0B0B0A"></rect><path d="M48 66L48 48L66 48" stroke="#C4A265" stroke-width="1.5" fill="none" opacity="0.5"></path><path d="M868 66L868 48L849 48" stroke="#C4A265" stroke-width="1.5" fill="none" opacity="0.5"></path><path d="M48 849L48 868L66 868" stroke="#C4A265" stroke-width="1.5" fill="none" opacity="0.5"></path><path d="M868 849L868 868L849 868" stroke="#C4A265" stroke-width="1.5" fill="none" opacity="0.5"></path><path d="M458 25V395M458 520V890" stroke="#C4A265" stroke-width="3.1" stroke-linecap="round" stroke-dasharray="0.1 10.9" fill="none"></path><path d="M25 458H395M520 458H890" stroke="#C4A265" stroke-width="3.1" stroke-linecap="round" stroke-dasharray="0.1 10.9" fill="none"></path><circle cx="458" cy="367" r="2" fill="#C4A265"></circle><circle cx="458" cy="549" r="2" fill="#C4A265"></circle><path d="M458 311L464 317L458 324L451 317Z" fill="#D9603F"></path><path d="M458 592L464 598L458 604L451 598Z" fill="#D9603F"></path><circle cx="458" cy="235" r="2" fill="#C4A265"></circle><circle cx="458" cy="680" r="2" fill="#C4A265"></circle><path d="M458 162L465 170L458 177L450 170Z" fill="#0B0B0A" stroke="#C4A265" stroke-width="2.6"></path><path d="M458 738L465 746L458 753L450 746Z" fill="#0B0B0A" stroke="#C4A265" stroke-width="2.6"></path><path d="M458 93L465 101L458 108L450 101Z" fill="#0B0B0A" stroke="#C4A265" stroke-width="2.6"></path><path d="M458 807L465 815L458 823L450 815Z" fill="#0B0B0A" stroke="#C4A265" stroke-width="2.6"></path><path d="M458 46L464 52L458 58L451 52Z" fill="#D9603F"></path><path d="M458 857L464 863L458 869L451 863Z" fill="#D9603F"></path><path data-lane="2" d="M237 159L237 211L263 211L263 263L237 263L237 237" stroke="#D9603F" stroke-width="2.6" fill="none" stroke-linecap="round"></path><circle data-role="chip" cx="237" cy="159" r="2" fill="#C4A265"></circle><circle data-role="chip" cx="237" cy="237" r="2" fill="#C4A265"></circle><path data-lane="2" d="M679 159L679 211L653 211L653 263L679 263L679 237" stroke="#D9603F" stroke-width="2.6" fill="none" stroke-linecap="round"></path><circle data-role="chip" cx="679" cy="159" r="2" fill="#C4A265"></circle><circle data-role="chip" cx="679" cy="237" r="2" fill="#C4A265"></circle><path data-lane="2" d="M237 757L237 705L263 705L263 653L237 653L237 679" stroke="#D9603F" stroke-width="2.6" fill="none" stroke-linecap="round"></path><circle data-role="chip" cx="237" cy="757" r="2" fill="#C4A265"></circle><circle data-role="chip" cx="237" cy="679" r="2" fill="#C4A265"></circle><path data-lane="2" d="M679 757L679 705L653 705L653 653L679 653L679 679" stroke="#D9603F" stroke-width="2.6" fill="none" stroke-linecap="round"></path><circle data-role="chip" cx="679" cy="757" r="2" fill="#C4A265"></circle><circle data-role="chip" cx="679" cy="679" r="2" fill="#C4A265"></circle><path data-lane="1" d="M315 393L315 315L185 315L185 289L289 289L289 211L445 211L445 289L367 289L367 237L315 237L315 289L341 289L341 419L237 419L237 549L393 549L393 471L549 471L549 549L627 549L627 393L523 393L523 289L575 289L575 367L549 367L549 315" stroke="#C4A265" stroke-width="2.6" fill="none" stroke-linecap="round" stroke-dasharray="0.1 7.8"></path><circle data-role="chip" cx="315" cy="393" r="2" fill="#C4A265"></circle><circle data-role="chip" cx="549" cy="315" r="2" fill="#C4A265"></circle><circle data-role="chip" cx="445" cy="289" r="1" fill="#C4A265"></circle><circle data-role="chip" cx="315" cy="237" r="1" fill="#C4A265"></circle><circle data-role="chip" cx="237" cy="419" r="1" fill="#C4A265"></circle><circle data-role="chip" cx="549" cy="367" r="1" fill="#C4A265"></circle><path data-lane="1" d="M601 393L601 315L731 315L731 289L627 289L627 211L471 211L471 289L549 289L549 237L601 237L601 289L575 289L575 419L679 419L679 549L523 549L523 471L367 471L367 549L289 549L289 393L393 393L393 289L341 289L341 367L367 367L367 315" stroke="#C4A265" stroke-width="2.6" fill="none" stroke-linecap="round" stroke-dasharray="0.1 7.8"></path><circle data-role="chip" cx="601" cy="393" r="2" fill="#C4A265"></circle><circle data-role="chip" cx="367" cy="315" r="2" fill="#C4A265"></circle><circle data-role="chip" cx="471" cy="289" r="1" fill="#C4A265"></circle><circle data-role="chip" cx="601" cy="237" r="1" fill="#C4A265"></circle><circle data-role="chip" cx="679" cy="419" r="1" fill="#C4A265"></circle><circle data-role="chip" cx="367" cy="367" r="1" fill="#C4A265"></circle><path data-lane="1" d="M315 523L315 601L185 601L185 627L289 627L289 705L445 705L445 627L367 627L367 679L315 679L315 627L341 627L341 497L237 497L237 367L393 367L393 445L549 445L549 367L627 367L627 523L523 523L523 627L575 627L575 549L549 549L549 601" stroke="#C4A265" stroke-width="2.6" fill="none" stroke-linecap="round" stroke-dasharray="0.1 7.8"></path><circle data-role="chip" cx="315" cy="523" r="2" fill="#C4A265"></circle><circle data-role="chip" cx="549" cy="601" r="2" fill="#C4A265"></circle><circle data-role="chip" cx="445" cy="627" r="1" fill="#C4A265"></circle><circle data-role="chip" cx="315" cy="679" r="1" fill="#C4A265"></circle><circle data-role="chip" cx="237" cy="497" r="1" fill="#C4A265"></circle><circle data-role="chip" cx="549" cy="549" r="1" fill="#C4A265"></circle><path data-lane="1" d="M601 523L601 601L731 601L731 627L627 627L627 705L471 705L471 627L549 627L549 679L601 679L601 627L575 627L575 497L679 497L679 367L523 367L523 445L367 445L367 367L289 367L289 523L393 523L393 627L341 627L341 549L367 549L367 601" stroke="#C4A265" stroke-width="2.6" fill="none" stroke-linecap="round" stroke-dasharray="0.1 7.8"></path><circle data-role="chip" cx="601" cy="523" r="2" fill="#C4A265"></circle><circle data-role="chip" cx="367" cy="601" r="2" fill="#C4A265"></circle><circle data-role="chip" cx="471" cy="627" r="1" fill="#C4A265"></circle><circle data-role="chip" cx="601" cy="679" r="1" fill="#C4A265"></circle><circle data-role="chip" cx="679" cy="497" r="1" fill="#C4A265"></circle><circle data-role="chip" cx="367" cy="549" r="1" fill="#C4A265"></circle><path data-lane="1" d="M185 367L237 367L237 393L289 393L289 341L263 341L263 367" stroke="#C4A265" stroke-width="2.6" fill="none" stroke-linecap="round" stroke-dasharray="0.1 7.8"></path><circle data-role="chip" cx="185" cy="367" r="2" fill="#C4A265"></circle><circle data-role="chip" cx="263" cy="367" r="2" fill="#C4A265"></circle><circle data-role="chip" cx="263" cy="341" r="1" fill="#C4A265"></circle><path data-lane="1" d="M731 367L679 367L679 393L627 393L627 341L653 341L653 367" stroke="#C4A265" stroke-width="2.6" fill="none" stroke-linecap="round" stroke-dasharray="0.1 7.8"></path><circle data-role="chip" cx="731" cy="367" r="2" fill="#C4A265"></circle><circle data-role="chip" cx="653" cy="367" r="2" fill="#C4A265"></circle><circle data-role="chip" cx="653" cy="341" r="1" fill="#C4A265"></circle><path data-lane="1" d="M185 549L237 549L237 523L289 523L289 575L263 575L263 549" stroke="#C4A265" stroke-width="2.6" fill="none" stroke-linecap="round" stroke-dasharray="0.1 7.8"></path><circle data-role="chip" cx="185" cy="549" r="2" fill="#C4A265"></circle><circle data-role="chip" cx="263" cy="549" r="2" fill="#C4A265"></circle><circle data-role="chip" cx="263" cy="575" r="1" fill="#C4A265"></circle><path data-lane="1" d="M731 549L679 549L679 523L627 523L627 575L653 575L653 549" stroke="#C4A265" stroke-width="2.6" fill="none" stroke-linecap="round" stroke-dasharray="0.1 7.8"></path><circle data-role="chip" cx="731" cy="549" r="2" fill="#C4A265"></circle><circle data-role="chip" cx="653" cy="549" r="2" fill="#C4A265"></circle><circle data-role="chip" cx="653" cy="575" r="1" fill="#C4A265"></circle><g data-role="badge"><path d="M200 437L221 458L200 478L179 458Z" fill="#0B0B0A" stroke="#C4A265" stroke-width="2.6"></path><path d="M191 458H208M200 449V466" stroke="#D9603F" stroke-width="4.1" fill="none"></path></g><g data-role="badge"><path d="M716 437L736 458L716 478L695 458Z" fill="#0B0B0A" stroke="#C4A265" stroke-width="2.6"></path><path d="M707 458H724M716 449V466" stroke="#D9603F" stroke-width="4.1" fill="none"></path></g><g data-role="border"><path d="M58 15Q74 22 58 29L58 29Q51 45 44 29L44 29Q28 22 44 15L44 15Q51 -1 58 15ZM58 887Q74 894 58 901L58 901Q51 917 44 901L44 901Q28 894 44 887L44 887Q51 870 58 887ZM29 44Q45 51 29 58L29 58Q22 74 15 58L15 58Q-1 51 15 44L15 44Q22 28 29 44ZM901 44Q917 51 901 58L901 58Q894 74 887 58L887 58Q870 51 887 44L887 44Q894 28 901 44ZM116 15Q132 22 116 29L116 29Q109 45 102 29L102 29Q86 22 102 15L102 15Q109 -1 116 15ZM116 887Q132 894 116 901L116 901Q109 917 102 901L102 901Q86 894 102 887L102 887Q109 870 116 887ZM29 102Q45 109 29 116L29 116Q22 132 15 116L15 116Q-1 109 15 102L15 102Q22 86 29 102ZM901 102Q917 109 901 116L901 116Q894 132 887 116L887 116Q870 109 887 102L887 102Q894 86 901 102ZM174 15Q190 22 174 29L174 29Q167 45 160 29L160 29Q144 22 160 15L160 15Q167 -1 174 15ZM174 887Q190 894 174 901L174 901Q167 917 160 901L160 901Q144 894 160 887L160 887Q167 870 174 887ZM29 160Q45 167 29 174L29 174Q22 190 15 174L15 174Q-1 167 15 160L15 160Q22 144 29 160ZM901 160Q917 167 901 174L901 174Q894 190 887 174L887 174Q870 167 887 160L887 160Q894 144 901 160ZM232 15Q248 22 232 29L232 29Q225 45 218 29L218 29Q202 22 218 15L218 15Q225 -1 232 15ZM232 887Q248 894 232 901L232 901Q225 917 218 901L218 901Q202 894 218 887L218 887Q225 870 232 887ZM29 218Q45 225 29 232L29 232Q22 248 15 232L15 232Q-1 225 15 218L15 218Q22 202 29 218ZM901 218Q917 225 901 232L901 232Q894 248 887 232L887 232Q870 225 887 218L887 218Q894 202 901 218ZM290 15Q306 22 290 29L290 29Q283 45 276 29L276 29Q260 22 276 15L276 15Q283 -1 290 15ZM290 887Q306 894 290 901L290 901Q283 917 276 901L276 901Q260 894 276 887L276 887Q283 870 290 887ZM29 276Q45 283 29 290L29 290Q22 306 15 290L15 290Q-1 283 15 276L15 276Q22 260 29 276ZM901 276Q917 283 901 290L901 290Q894 306 887 290L887 290Q870 283 887 276L887 276Q894 260 901 276ZM348 15Q365 22 348 29L348 29Q341 45 334 29L334 29Q318 22 334 15L334 15Q341 -1 348 15ZM348 887Q365 894 348 901L348 901Q341 917 334 901L334 901Q318 894 334 887L334 887Q341 870 348 887ZM29 334Q45 341 29 348L29 348Q22 365 15 348L15 348Q-1 341 15 334L15 334Q22 318 29 334ZM901 334Q917 341 901 348L901 348Q894 365 887 348L887 348Q870 341 887 334L887 334Q894 318 901 334ZM406 15Q423 22 406 29L407 29Q400 45 393 29L393 29Q376 22 393 15L393 15Q400 -1 407 15ZM406 887Q423 894 406 901L407 901Q400 917 393 901L393 901Q376 894 393 887L393 887Q400 870 407 887ZM29 393Q45 400 29 407L29 406Q22 423 15 406L15 407Q-1 400 15 393L15 393Q22 376 29 393ZM901 393Q917 400 901 407L901 406Q894 423 887 406L887 407Q870 400 887 393L887 393Q894 376 901 393ZM465 15Q481 22 465 29L465 29Q458 45 451 29L451 29Q435 22 451 15L451 15Q458 -1 465 15ZM465 887Q481 894 465 901L465 901Q458 917 451 901L451 901Q435 894 451 887L451 887Q458 870 465 887ZM29 451Q45 458 29 465L29 465Q22 481 15 465L15 465Q-1 458 15 451L15 451Q22 435 29 451ZM901 451Q917 458 901 465L901 465Q894 481 887 465L887 465Q870 458 887 451L887 451Q894 435 901 451ZM523 15Q539 22 523 29L523 29Q516 45 509 29L509 29Q493 22 509 15L509 15Q516 -1 523 15ZM523 887Q539 894 523 901L523 901Q516 917 509 901L509 901Q493 894 509 887L509 887Q516 870 523 887ZM29 509Q45 516 29 523L29 523Q22 539 15 523L15 523Q-1 516 15 509L15 509Q22 493 29 509ZM901 509Q917 516 901 523L901 523Q894 539 887 523L887 523Q870 516 887 509L887 509Q894 493 901 509ZM581 15Q597 22 581 29L581 29Q574 45 567 29L567 29Q551 22 567 15L567 15Q574 -1 581 15ZM581 887Q597 894 581 901L581 901Q574 917 567 901L567 901Q551 894 567 887L567 887Q574 870 581 887ZM29 567Q45 574 29 581L29 581Q22 597 15 581L15 581Q-1 574 15 567L15 567Q22 551 29 567ZM901 567Q917 574 901 581L901 581Q894 597 887 581L887 581Q870 574 887 567L887 567Q894 551 901 567ZM639 15Q655 22 639 29L639 29Q632 45 625 29L625 29Q609 22 625 15L625 15Q632 -1 639 15ZM639 887Q655 894 639 901L639 901Q632 917 625 901L625 901Q609 894 625 887L625 887Q632 870 639 887ZM29 625Q45 632 29 639L29 639Q22 655 15 639L15 639Q-1 632 15 625L15 625Q22 609 29 625ZM901 625Q917 632 901 639L901 639Q894 655 887 639L887 639Q870 632 887 625L887 625Q894 609 901 625ZM697 15Q713 22 697 29L697 29Q690 45 683 29L683 29Q667 22 683 15L683 15Q690 -1 697 15ZM697 887Q713 894 697 901L697 901Q690 917 683 901L683 901Q667 894 683 887L683 887Q690 870 697 887ZM29 683Q45 690 29 697L29 697Q22 713 15 697L15 697Q-1 690 15 683L15 683Q22 667 29 683ZM901 683Q917 690 901 697L901 697Q894 713 887 697L887 697Q870 690 887 683L887 683Q894 667 901 683ZM755 15Q771 22 755 29L755 29Q748 45 741 29L741 29Q725 22 741 15L741 15Q748 -1 755 15ZM755 887Q771 894 755 901L755 901Q748 917 741 901L741 901Q725 894 741 887L741 887Q748 870 755 887ZM29 741Q45 748 29 755L29 755Q22 771 15 755L15 755Q-1 748 15 741L15 741Q22 725 29 741ZM901 741Q917 748 901 755L901 755Q894 771 887 755L887 755Q870 748 887 741L887 741Q894 725 901 741ZM813 15Q830 22 813 29L813 29Q806 45 799 29L799 29Q783 22 799 15L799 15Q806 -1 813 15ZM813 887Q830 894 813 901L813 901Q806 917 799 901L799 901Q783 894 799 887L799 887Q806 870 813 887ZM29 799Q45 806 29 813L29 813Q22 830 15 813L15 813Q-1 806 15 799L15 799Q22 783 29 799ZM901 799Q917 806 901 813L901 813Q894 830 887 813L887 813Q870 806 887 799L887 799Q894 783 901 799ZM872 15Q888 22 872 29L872 29Q865 45 858 29L858 29Q841 22 858 15L858 15Q865 -1 872 15ZM872 887Q888 894 872 901L872 901Q865 917 858 901L858 901Q841 894 858 887L858 887Q865 870 872 887ZM29 858Q45 865 29 872L29 872Q22 888 15 872L15 872Q-1 865 15 858L15 858Q22 841 29 858ZM901 858Q917 865 901 872L901 872Q894 888 887 872L887 872Q870 865 887 858L887 858Q894 841 901 858Z" fill="#C4A265" stroke="#C4A265" stroke-width="2.2" opacity="0.5" stroke-linejoin="round"></path><rect x="51" y="51" width="813" height="813" fill="none" stroke="#C4A265" stroke-width="1.8" opacity="0.35"></rect></g><g transform="translate(434.6 457.6) scale(2.1750) translate(-10.5 -11.5)"><path d="M13 18v-9a4 4 0 0 0-4 -4v15a4 4 0 0 0 4 4 4 4 0 0 0 3 -1c-2 0 -3 -2 -3 -4M4 1A4 4 0 0 0 0 5h17a4 4 0 0 0 4 -4z" fill="#C4A265"></path></g><g transform="translate(480.6 457.6) scale(2.1750) translate(-10.5 -11.5)"><path d="M13 18v-9a4 4 0 0 0-4 -4v15a4 4 0 0 0 4 4 4 4 0 0 0 3 -1c-2 0 -3 -2 -3 -4M4 1A4 4 0 0 0 0 5h17a4 4 0 0 0 4 -4z" fill="#C4A265"></path></g></svg>